<svg viewBox="0.00000 0.00000 300.00000 80.00000" xmlns="http://www.w3.org/2000/svg"><path d="M 0.00000 0.00000 h 3.17460 v 60.00000 h -3.17460 z M 4.76190 0.00000 h 1.58730 v 60.00000 h -1.58730 z M 9.52381 0.00000 h 1.58730 v 60.00000 h -1.58730 z M 17.46032 0.00000 h 3.17460 v 60.00000 h -3.17460 z M 23.80952 0.00000 h 4.76190 v 60.00000 h -4.76190 z M 31.74603 0.00000 h 1.58730 v 60.00000 h -1.58730 z M 34.92063 0.00000 h 6.34921 v 60.00000 h -6.34921 z M 44.44444 0.00000 h 1.58730 v 60.00000 h -1.58730 z M 47.61905 0.00000 h 1.58730 v 60.00000 h -1.58730 z M 52.38095 0.00000 h 6.34921 v 60.00000 h -6.34921 z M 61.90476 0.00000 h 1.58730 v 60.00000 h -1.58730 z M 65.07937 0.00000 h 1.58730 v 60.00000 h -1.58730 z M 69.84127 0.00000 h 6.34921 v 60.00000 h -6.34921 z M 79.36508 0.00000 h 1.58730 v 60.00000 h -1.58730 z M 82.53968 0.00000 h 1.58730 v 60.00000 h -1.58730 z M 87.30159 0.00000 h 1.58730 v 60.00000 h -1.58730 z M 92.06349 0.00000 h 3.17460 v 60.00000 h -3.17460 z M 96.82540 0.00000 h 4.76190 v 60.00000 h -4.76190 z M 104.76190 0.00000 h 6.34921 v 60.00000 h -6.34921 z M 114.28571 0.00000 h 1.58730 v 60.00000 h -1.58730 z M 117.46032 0.00000 h 1.58730 v 60.00000 h -1.58730 z M 122.22222 0.00000 h 3.17460 v 60.00000 h -3.17460 z M 128.57143 0.00000 h 4.76190 v 60.00000 h -4.76190 z M 136.50794 0.00000 h 1.58730 v 60.00000 h -1.58730 z M 139.68254 0.00000 h 6.34921 v 60.00000 h -6.34921 z M 149.20635 0.00000 h 1.58730 v 60.00000 h -1.58730 z M 152.38095 0.00000 h 1.58730 v 60.00000 h -1.58730 z M 157.14286 0.00000 h 6.34921 v 60.00000 h -6.34921 z M 166.66667 0.00000 h 1.58730 v 60.00000 h -1.58730 z M 169.84127 0.00000 h 1.58730 v 60.00000 h -1.58730 z M 174.60317 0.00000 h 1.58730 v 60.00000 h -1.58730 z M 179.36508 0.00000 h 3.17460 v 60.00000 h -3.17460 z M 184.12698 0.00000 h 4.76190 v 60.00000 h -4.76190 z M 192.06349 0.00000 h 6.34921 v 60.00000 h -6.34921 z M 201.58730 0.00000 h 1.58730 v 60.00000 h -1.58730 z M 204.76190 0.00000 h 1.58730 v 60.00000 h -1.58730 z M 209.52381 0.00000 h 6.34921 v 60.00000 h -6.34921 z M 219.04762 0.00000 h 1.58730 v 60.00000 h -1.58730 z M 222.22222 0.00000 h 1.58730 v 60.00000 h -1.58730 z M 226.98413 0.00000 h 3.17460 v 60.00000 h -3.17460 z M 233.33333 0.00000 h 4.76190 v 60.00000 h -4.76190 z M 241.26984 0.00000 h 1.58730 v 60.00000 h -1.58730 z M 244.44444 0.00000 h 6.34921 v 60.00000 h -6.34921 z M 253.96825 0.00000 h 1.58730 v 60.00000 h -1.58730 z M 257.14286 0.00000 h 1.58730 v 60.00000 h -1.58730 z M 261.90476 0.00000 h 6.34921 v 60.00000 h -6.34921 z M 271.42857 0.00000 h 1.58730 v 60.00000 h -1.58730 z M 276.19048 0.00000 h 1.58730 v 60.00000 h -1.58730 z M 279.36508 0.00000 h 3.17460 v 60.00000 h -3.17460 z M 287.30159 0.00000 h 4.76190 v 60.00000 h -4.76190 z M 293.65079 0.00000 h 1.58730 v 60.00000 h -1.58730 z M 296.82540 0.00000 h 3.17460 v 60.00000 h -3.17460 z " style="fill: #000000"/><text style="fill: #000000; font-family: &quot;monospace&quot;; font-size: 16.00000px" x="0.00000" y="0.00000"><tspan style="text-anchor: middle" x="150.00000" y="76.00000">2www-w2ww-ww2w</tspan></text></svg>