<svg viewBox="0.00000 0.00000 300.00000 80.00000" xmlns="http://www.w3.org/2000/svg"><path d="M 0.00000 0.00000 h 4.47761 v 60.00000 h -4.47761 z M 6.71642 0.00000 h 2.23881 v 60.00000 h -2.23881 z M 13.43284 0.00000 h 2.23881 v 60.00000 h -2.23881 z M 24.62687 0.00000 h 2.23881 v 60.00000 h -2.23881 z M 35.82090 0.00000 h 2.23881 v 60.00000 h -2.23881 z M 42.53731 0.00000 h 4.47761 v 60.00000 h -4.47761 z M 49.25373 0.00000 h 2.23881 v 60.00000 h -2.23881 z M 60.44776 0.00000 h 2.23881 v 60.00000 h -2.23881 z M 67.16418 0.00000 h 4.47761 v 60.00000 h -4.47761 z M 73.88060 0.00000 h 2.23881 v 60.00000 h -2.23881 z M 80.59701 0.00000 h 6.71642 v 60.00000 h -6.71642 z M 91.79104 0.00000 h 4.47761 v 60.00000 h -4.47761 z M 98.50746 0.00000 h 4.47761 v 60.00000 h -4.47761 z M 107.46269 0.00000 h 6.71642 v 60.00000 h -6.71642 z M 118.65672 0.00000 h 2.23881 v 60.00000 h -2.23881 z M 123.13433 0.00000 h 2.23881 v 60.00000 h -2.23881 z M 129.85075 0.00000 h 4.47761 v 60.00000 h -4.47761 z M 136.56716 0.00000 h 6.71642 v 60.00000 h -6.71642 z M 147.76119 0.00000 h 2.23881 v 60.00000 h -2.23881 z M 154.47761 0.00000 h 6.71642 v 60.00000 h -6.71642 z M 163.43284 0.00000 h 4.47761 v 60.00000 h -4.47761 z M 172.38806 0.00000 h 4.47761 v 60.00000 h -4.47761 z M 179.10448 0.00000 h 6.71642 v 60.00000 h -6.71642 z M 190.29851 0.00000 h 2.23881 v 60.00000 h -2.23881 z M 197.01493 0.00000 h 4.47761 v 60.00000 h -4.47761 z M 205.97015 0.00000 h 2.23881 v 60.00000 h -2.23881 z M 212.68657 0.00000 h 6.71642 v 60.00000 h -6.71642 z M 221.64179 0.00000 h 2.23881 v 60.00000 h -2.23881 z M 232.83582 0.00000 h 2.23881 v 60.00000 h -2.23881 z M 239.55224 0.00000 h 4.47761 v 60.00000 h -4.47761 z M 246.26866 0.00000 h 2.23881 v 60.00000 h -2.23881 z M 250.74627 0.00000 h 4.47761 v 60.00000 h -4.47761 z M 259.70149 0.00000 h 2.23881 v 60.00000 h -2.23881 z M 270.89552 0.00000 h 4.47761 v 60.00000 h -4.47761 z M 282.08955 0.00000 h 6.71642 v 60.00000 h -6.71642 z M 291.04478 0.00000 h 2.23881 v 60.00000 h -2.23881 z M 295.52239 0.00000 h 4.47761 v 60.00000 h -4.47761 z " style="fill: #000000"/><text style="fill: #000000; font-family: &quot;monospace&quot;; font-size: 16.00000px" x="0.00000" y="0.00000"><tspan style="text-anchor: middle" x="150.00000" y="76.00000">dd12-054d</tspan></text></svg>