<svg viewBox="0.00000 0.00000 300.00000 80.00000" xmlns="http://www.w3.org/2000/svg"><path d="M 0.00000 0.00000 h 2.57511 v 60.00000 h -2.57511 z M 3.86266 0.00000 h 1.28755 v 60.00000 h -1.28755 z M 7.72532 0.00000 h 1.28755 v 60.00000 h -1.28755 z M 14.16309 0.00000 h 1.28755 v 60.00000 h -1.28755 z M 20.60086 0.00000 h 1.28755 v 60.00000 h -1.28755 z M 24.46352 0.00000 h 2.57511 v 60.00000 h -2.57511 z M 28.32618 0.00000 h 1.28755 v 60.00000 h -1.28755 z M 34.76395 0.00000 h 1.28755 v 60.00000 h -1.28755 z M 38.62661 0.00000 h 2.57511 v 60.00000 h -2.57511 z M 42.48927 0.00000 h 1.28755 v 60.00000 h -1.28755 z M 48.92704 0.00000 h 1.28755 v 60.00000 h -1.28755 z M 52.78970 0.00000 h 2.57511 v 60.00000 h -2.57511 z M 56.65236 0.00000 h 1.28755 v 60.00000 h -1.28755 z M 63.09013 0.00000 h 1.28755 v 60.00000 h -1.28755 z M 66.95279 0.00000 h 2.57511 v 60.00000 h -2.57511 z M 70.81545 0.00000 h 1.28755 v 60.00000 h -1.28755 z M 74.67811 0.00000 h 2.57511 v 60.00000 h -2.57511 z M 78.54077 0.00000 h 3.86266 v 60.00000 h -3.86266 z M 84.97854 0.00000 h 1.28755 v 60.00000 h -1.28755 z M 91.41631 0.00000 h 1.28755 v 60.00000 h -1.28755 z M 95.27897 0.00000 h 2.57511 v 60.00000 h -2.57511 z M 99.14163 0.00000 h 1.28755 v 60.00000 h -1.28755 z M 105.57940 0.00000 h 1.28755 v 60.00000 h -1.28755 z M 109.44206 0.00000 h 2.57511 v 60.00000 h -2.57511 z M 113.30472 0.00000 h 1.28755 v 60.00000 h -1.28755 z M 119.74249 0.00000 h 1.28755 v 60.00000 h -1.28755 z M 123.60515 0.00000 h 2.57511 v 60.00000 h -2.57511 z M 127.46781 0.00000 h 1.28755 v 60.00000 h -1.28755 z M 133.90558 0.00000 h 1.28755 v 60.00000 h -1.28755 z M 137.76824 0.00000 h 2.57511 v 60.00000 h -2.57511 z M 141.63090 0.00000 h 1.28755 v 60.00000 h -1.28755 z M 145.49356 0.00000 h 2.57511 v 60.00000 h -2.57511 z M 149.35622 0.00000 h 3.86266 v 60.00000 h -3.86266 z M 155.79399 0.00000 h 1.28755 v 60.00000 h -1.28755 z M 162.23176 0.00000 h 1.28755 v 60.00000 h -1.28755 z M 166.09442 0.00000 h 2.57511 v 60.00000 h -2.57511 z M 169.95708 0.00000 h 1.28755 v 60.00000 h -1.28755 z M 176.39485 0.00000 h 1.28755 v 60.00000 h -1.28755 z M 180.25751 0.00000 h 2.57511 v 60.00000 h -2.57511 z M 184.12017 0.00000 h 2.57511 v 60.00000 h -2.57511 z M 189.27039 0.00000 h 3.86266 v 60.00000 h -3.86266 z M 195.70815 0.00000 h 1.28755 v 60.00000 h -1.28755 z M 198.28326 0.00000 h 2.57511 v 60.00000 h -2.57511 z M 203.43348 0.00000 h 3.86266 v 60.00000 h -3.86266 z M 209.87124 0.00000 h 1.28755 v 60.00000 h -1.28755 z M 212.44635 0.00000 h 1.28755 v 60.00000 h -1.28755 z M 216.30901 0.00000 h 2.57511 v 60.00000 h -2.57511 z M 220.17167 0.00000 h 3.86266 v 60.00000 h -3.86266 z M 226.60944 0.00000 h 2.57511 v 60.00000 h -2.57511 z M 231.75966 0.00000 h 3.86266 v 60.00000 h -3.86266 z M 238.19742 0.00000 h 1.28755 v 60.00000 h -1.28755 z M 240.77253 0.00000 h 2.57511 v 60.00000 h -2.57511 z M 245.92275 0.00000 h 3.86266 v 60.00000 h -3.86266 z M 252.36052 0.00000 h 1.28755 v 60.00000 h -1.28755 z M 254.93562 0.00000 h 2.57511 v 60.00000 h -2.57511 z M 260.08584 0.00000 h 3.86266 v 60.00000 h -3.86266 z M 266.52361 0.00000 h 1.28755 v 60.00000 h -1.28755 z M 269.09871 0.00000 h 2.57511 v 60.00000 h -2.57511 z M 274.24893 0.00000 h 2.57511 v 60.00000 h -2.57511 z M 279.39914 0.00000 h 2.57511 v 60.00000 h -2.57511 z M 283.26180 0.00000 h 2.57511 v 60.00000 h -2.57511 z M 289.69957 0.00000 h 3.86266 v 60.00000 h -3.86266 z M 294.84979 0.00000 h 1.28755 v 60.00000 h -1.28755 z M 297.42489 0.00000 h 2.57511 v 60.00000 h -2.57511 z " style="fill: #000000"/><text style="fill: #000000; font-family: &quot;monospace&quot;; font-size: 16.00000px" x="0.00000" y="0.00000"><tspan style="text-anchor: middle" x="150.00000" y="76.00000">dddd-dddd-dd22-222</tspan></text></svg>