<svg viewBox="0.00000 0.00000 300.00000 80.00000" xmlns="http://www.w3.org/2000/svg"><path d="M 0.00000 0.00000 h 2.45902 v 60.00000 h -2.45902 z M 3.68852 0.00000 h 1.22951 v 60.00000 h -1.22951 z M 7.37705 0.00000 h 1.22951 v 60.00000 h -1.22951 z M 13.52459 0.00000 h 1.22951 v 60.00000 h -1.22951 z M 19.67213 0.00000 h 1.22951 v 60.00000 h -1.22951 z M 23.36066 0.00000 h 2.45902 v 60.00000 h -2.45902 z M 27.04918 0.00000 h 1.22951 v 60.00000 h -1.22951 z M 29.50820 0.00000 h 4.91803 v 60.00000 h -4.91803 z M 36.88525 0.00000 h 1.22951 v 60.00000 h -1.22951 z M 40.57377 0.00000 h 1.22951 v 60.00000 h -1.22951 z M 43.03279 0.00000 h 2.45902 v 60.00000 h -2.45902 z M 50.40984 0.00000 h 1.22951 v 60.00000 h -1.22951 z M 54.09836 0.00000 h 2.45902 v 60.00000 h -2.45902 z M 59.01639 0.00000 h 1.22951 v 60.00000 h -1.22951 z M 61.47541 0.00000 h 3.68852 v 60.00000 h -3.68852 z M 67.62295 0.00000 h 1.22951 v 60.00000 h -1.22951 z M 71.31148 0.00000 h 2.45902 v 60.00000 h -2.45902 z M 75.00000 0.00000 h 3.68852 v 60.00000 h -3.68852 z M 81.14754 0.00000 h 1.22951 v 60.00000 h -1.22951 z M 84.83607 0.00000 h 1.22951 v 60.00000 h -1.22951 z M 88.52459 0.00000 h 4.91803 v 60.00000 h -4.91803 z M 94.67213 0.00000 h 2.45902 v 60.00000 h -2.45902 z M 99.59016 0.00000 h 1.22951 v 60.00000 h -1.22951 z M 102.04918 0.00000 h 3.68852 v 60.00000 h -3.68852 z M 108.19672 0.00000 h 2.45902 v 60.00000 h -2.45902 z M 113.11475 0.00000 h 3.68852 v 60.00000 h -3.68852 z M 119.26230 0.00000 h 1.22951 v 60.00000 h -1.22951 z M 121.72131 0.00000 h 2.45902 v 60.00000 h -2.45902 z M 126.63934 0.00000 h 1.22951 v 60.00000 h -1.22951 z M 130.32787 0.00000 h 3.68852 v 60.00000 h -3.68852 z M 135.24590 0.00000 h 1.22951 v 60.00000 h -1.22951 z M 138.93443 0.00000 h 2.45902 v 60.00000 h -2.45902 z M 142.62295 0.00000 h 3.68852 v 60.00000 h -3.68852 z M 148.77049 0.00000 h 1.22951 v 60.00000 h -1.22951 z M 154.91803 0.00000 h 1.22951 v 60.00000 h -1.22951 z M 158.60656 0.00000 h 2.45902 v 60.00000 h -2.45902 z M 162.29508 0.00000 h 2.45902 v 60.00000 h -2.45902 z M 167.21311 0.00000 h 3.68852 v 60.00000 h -3.68852 z M 173.36066 0.00000 h 1.22951 v 60.00000 h -1.22951 z M 175.81967 0.00000 h 2.45902 v 60.00000 h -2.45902 z M 180.73770 0.00000 h 1.22951 v 60.00000 h -1.22951 z M 183.19672 0.00000 h 3.68852 v 60.00000 h -3.68852 z M 189.34426 0.00000 h 1.22951 v 60.00000 h -1.22951 z M 195.49180 0.00000 h 1.22951 v 60.00000 h -1.22951 z M 199.18033 0.00000 h 2.45902 v 60.00000 h -2.45902 z M 202.86885 0.00000 h 1.22951 v 60.00000 h -1.22951 z M 206.55738 0.00000 h 2.45902 v 60.00000 h -2.45902 z M 210.24590 0.00000 h 3.68852 v 60.00000 h -3.68852 z M 216.39344 0.00000 h 2.45902 v 60.00000 h -2.45902 z M 221.31148 0.00000 h 3.68852 v 60.00000 h -3.68852 z M 227.45902 0.00000 h 1.22951 v 60.00000 h -1.22951 z M 229.91803 0.00000 h 2.45902 v 60.00000 h -2.45902 z M 234.83607 0.00000 h 1.22951 v 60.00000 h -1.22951 z M 237.29508 0.00000 h 3.68852 v 60.00000 h -3.68852 z M 243.44262 0.00000 h 1.22951 v 60.00000 h -1.22951 z M 247.13115 0.00000 h 1.22951 v 60.00000 h -1.22951 z M 249.59016 0.00000 h 2.45902 v 60.00000 h -2.45902 z M 256.96721 0.00000 h 1.22951 v 60.00000 h -1.22951 z M 259.42623 0.00000 h 4.91803 v 60.00000 h -4.91803 z M 266.80328 0.00000 h 1.22951 v 60.00000 h -1.22951 z M 270.49180 0.00000 h 1.22951 v 60.00000 h -1.22951 z M 276.63934 0.00000 h 1.22951 v 60.00000 h -1.22951 z M 280.32787 0.00000 h 2.45902 v 60.00000 h -2.45902 z M 284.01639 0.00000 h 2.45902 v 60.00000 h -2.45902 z M 290.16393 0.00000 h 3.68852 v 60.00000 h -3.68852 z M 295.08197 0.00000 h 1.22951 v 60.00000 h -1.22951 z M 297.54098 0.00000 h 2.45902 v 60.00000 h -2.45902 z " style="fill: #000000"/><text style="fill: #000000; font-family: &quot;monospace&quot;; font-size: 16.00000px" x="0.00000" y="0.00000"><tspan style="text-anchor: middle" x="150.00000" y="76.00000">dsf3-r324-d23d-23as</tspan></text></svg>