<svg viewBox="0.00000 0.00000 300.00000 80.00000" xmlns="http://www.w3.org/2000/svg"><path d="M 0.00000 0.00000 h 13.04348 v 60.00000 h -13.04348 z M 19.56522 0.00000 h 6.52174 v 60.00000 h -6.52174 z M 39.13043 0.00000 h 6.52174 v 60.00000 h -6.52174 z M 71.73913 0.00000 h 6.52174 v 60.00000 h -6.52174 z M 91.30435 0.00000 h 13.04348 v 60.00000 h -13.04348 z M 130.43478 0.00000 h 6.52174 v 60.00000 h -6.52174 z M 143.47826 0.00000 h 6.52174 v 60.00000 h -6.52174 z M 176.08696 0.00000 h 13.04348 v 60.00000 h -13.04348 z M 195.65217 0.00000 h 6.52174 v 60.00000 h -6.52174 z M 215.21739 0.00000 h 13.04348 v 60.00000 h -13.04348 z M 247.82609 0.00000 h 19.56522 v 60.00000 h -19.56522 z M 273.91304 0.00000 h 6.52174 v 60.00000 h -6.52174 z M 286.95652 0.00000 h 13.04348 v 60.00000 h -13.04348 z " style="fill: #000000"/><text style="fill: #000000; font-family: &quot;monospace&quot;; font-size: 16.00000px" x="0.00000" y="0.00000"><tspan style="text-anchor: middle" x="150.00000" y="76.00000">h</tspan></text></svg>